HIERARCHY
ROOT Hips
{
	OFFSET 0.000000 0.000000 0.000000
	CHANNELS 6 Xposition Yposition Zposition Xrotation Yrotation Zrotation
	JOINT LeftUpLeg_virtual
	{
		OFFSET 0.000000 0.000000 0.000000
		CHANNELS 3 Xrotation Yrotation Zrotation
		JOINT LeftUpLeg
		{
			OFFSET 15.427100 -6.655098 0.678600
			CHANNELS 3 Xrotation Yrotation Zrotation
			JOINT LeftLeg
			{
				OFFSET 4.081073 -39.591068 13.024000
				CHANNELS 3 Xrotation Yrotation Zrotation
				JOINT LeftFoot
				{
					OFFSET -4.081074 -37.707932 -15.979700
					CHANNELS 3 Xrotation Yrotation Zrotation
					JOINT LeftToeBase
					{
						OFFSET 5.346399 -15.068900 20.645000
						CHANNELS 3 Xrotation Yrotation Zrotation
						JOINT LeftToe_End
						{
							OFFSET 2.754700 0.931300 11.300900
							CHANNELS 3 Xrotation Yrotation Zrotation
							End Site
							{
								OFFSET 0 0 0
							}
						}
					}
				}
			}
		}
	}
	JOINT RightUpLeg_virtual
	{
		OFFSET 0.000000 0.000000 0.000000
		CHANNELS 3 Xrotation Yrotation Zrotation
		JOINT RightUpLeg
		{
			OFFSET -15.569500 -6.655098 0.678600
			CHANNELS 3 Xrotation Yrotation Zrotation
			JOINT RightLeg
			{
				OFFSET -4.081825 -39.591045 13.023800
				CHANNELS 3 Xrotation Yrotation Zrotation
				JOINT RightFoot
				{
					OFFSET 4.081824 -37.707954 -15.979600
					CHANNELS 3 Xrotation Yrotation Zrotation
					JOINT RightToeBase
					{
						OFFSET -5.346400 -15.068900 20.645000
						CHANNELS 3 Xrotation Yrotation Zrotation
						JOINT RightToe_End
						{
							OFFSET -2.754700 0.931300 11.300900
							CHANNELS 3 Xrotation Yrotation Zrotation
							End Site
							{
								OFFSET 0 0 0
							}
						}
					}
				}
			}
		}
	}
	JOINT Spine_virtual
	{
		OFFSET 0.000000 0.000000 0.000000
		CHANNELS 3 Xrotation Yrotation Zrotation
		JOINT Spine
		{
			OFFSET -0.279200 12.230698 -2.892100
			CHANNELS 3 Xrotation Yrotation Zrotation
			JOINT Spine1
			{
				OFFSET -0.232667 10.192268 -1.242267
				CHANNELS 3 Xrotation Yrotation Zrotation
				JOINT Spine1_split
				{
					OFFSET -0.232667 10.192268 -1.242267
					CHANNELS 3 Xrotation Yrotation Zrotation
					JOINT Spine2
					{
						OFFSET -0.232667 10.192268 -1.242267
						CHANNELS 3 Xrotation Yrotation Zrotation
						JOINT Neck_virtual
						{
							OFFSET 0.000000 0.000000 0.000000
							CHANNELS 3 Xrotation Yrotation Zrotation
							JOINT Neck
							{
								OFFSET -0.418800 17.814194 8.416900
								CHANNELS 3 Xrotation Yrotation Zrotation
								JOINT Head
								{
									OFFSET 0.000000 7.031097 3.806800
									CHANNELS 3 Xrotation Yrotation Zrotation
									JOINT HeadTop_End
									{
										OFFSET 0.000000 24.646606 12.978600
										CHANNELS 3 Xrotation Yrotation Zrotation
										End Site
										{
											OFFSET 0 0 0
										}
									}
								}
							}
						}
						JOINT LeftShoulder_virtual
						{
							OFFSET 0.000000 0.000000 0.000000
							CHANNELS 3 Xrotation Yrotation Zrotation
							JOINT LeftShoulder
							{
								OFFSET 8.476499 7.247704 -3.868750
								CHANNELS 3 Xrotation Yrotation Zrotation
								JOINT LeftShoulder_split
								{
									OFFSET 8.476499 7.247704 -3.868750
									CHANNELS 3 Xrotation Yrotation Zrotation
									JOINT LeftArm
									{
										OFFSET 9.308998 -2.777710 0.208600
										CHANNELS 3 Xrotation Yrotation Zrotation
										JOINT LeftForeArm
										{
											OFFSET 29.972298 0.000000 0.000000
											CHANNELS 3 Xrotation Yrotation Zrotation
											JOINT LeftHand
											{
												OFFSET 26.026505 0.000000 0.000000
												CHANNELS 3 Xrotation Yrotation Zrotation
												End Site
												{
													OFFSET 0 0 0
												}
											}
										}
									}
								}
							}
						}
						JOINT RightShoulder_virtual
						{
							OFFSET 0.000000 0.000000 0.000000
							CHANNELS 3 Xrotation Yrotation Zrotation
							JOINT RightShoulder
							{
								OFFSET -7.570500 7.247704 -3.868750
								CHANNELS 3 Xrotation Yrotation Zrotation
								JOINT RightShoulder_split
								{
									OFFSET -7.570500 7.247704 -3.868750
									CHANNELS 3 Xrotation Yrotation Zrotation
									JOINT RightArm
									{
										OFFSET -9.308998 -2.777710 0.208500
										CHANNELS 3 Xrotation Yrotation Zrotation
										JOINT RightForeArm
										{
											OFFSET -29.972300 0.000000 0.000000
											CHANNELS 3 Xrotation Yrotation Zrotation
											JOINT RightHand
											{
												OFFSET -26.026505 0.000000 0.000000
												CHANNELS 3 Xrotation Yrotation Zrotation
												End Site
												{
													OFFSET 0 0 0
												}
											}
										}
									}
								}
							}
						}
					}
				}
			}
		}
	}
}
MOTION
Frames: 9
Frame Time: 0.03333333
3.967098 87.612198 -15.815315 0.000000 0.000000 0.000000 5.243305 -45.162324 2.081193 -34.988402 2.651880 16.866232 28.555532 -8.144139 1.521038 13.075038 -7.325775 -13.867278 -8.013008 -2.733079 -3.092868 0.000000 0.000000 0.000000 6.167090 -41.267409 1.987614 7.063438 -22.770994 -8.066353 19.678219 7.773431 -0.683932 -27.399866 -24.882965 21.351550 1.253611 3.901519 -10.389019 0.000000 0.000000 0.000000 1.827374 -36.834554 0.486776 1.351545 6.638507 0.071071 11.910673 6.861557 -0.853568 0.105113 -1.205118 0.026277 0.000000 0.000000 0.000000 14.459656 8.402430 -1.605252 -6.584024 5.518485 0.960462 -5.860135 -5.132681 9.328008 0.000000 0.000000 0.000000 9.783817 7.109702 -1.290437 2.475281 -3.010622 -1.456256 5.481121 1.404102 -8.877714 -25.307768 11.109689 -59.701270 -1.317339 -46.204553 -8.978327 0.000000 0.000000 0.000000 12.760987 7.198798 -0.231285 0.793533 -1.382220 4.175712 -4.738563 9.015209 -0.000377 0.871540 -25.189271 56.297640 -15.015607 36.232221 13.845508 0.000000 0.000000 0.000000 
4.028339 88.837181 -15.416969 0.000000 0.000000 0.000000 6.796217 -43.941083 2.428473 -34.216301 1.871166 16.359580 26.139660 -7.471493 2.109418 11.061552 -6.716232 -12.178764 -5.899866 -2.391236 -4.535780 0.000000 0.000000 0.000000 7.038859 -40.666963 2.188257 6.284490 -23.300926 -8.471353 16.743273 7.799490 -0.017982 -26.798648 -23.757293 20.054450 2.577281 3.744341 -9.892726 0.000000 0.000000 0.000000 3.647455 -36.931284 0.726835 0.551450 6.392149 0.529538 12.233583 6.696952 -0.858322 0.088161 -0.937176 0.031523 0.000000 0.000000 0.000000 14.401418 8.194309 -1.440400 -6.583757 5.440965 1.205454 -6.567005 -3.132879 9.125403 0.000000 0.000000 0.000000 10.136645 6.970155 -1.289326 2.617425 -2.735970 -1.340617 4.922180 2.798837 -8.488815 -24.130427 12.715826 -59.817021 -0.766698 -45.042768 -8.381491 0.000000 0.000000 0.000000 13.332659 7.162381 -0.404095 0.825415 -0.275415 4.400157 -6.656562 7.904959 -1.052313 -1.322335 -25.084235 55.428153 -15.632835 37.210836 13.950068 0.000000 0.000000 0.000000 
4.472421 90.203003 -15.256382 0.000000 0.000000 0.000000 8.579170 -42.407460 2.962624 -33.301349 1.800497 15.632812 22.230075 -6.553711 2.870879 9.370047 -5.631377 -12.997769 -2.210152 -2.308502 -4.750241 0.000000 0.000000 0.000000 8.372553 -40.120589 2.724605 3.269716 -22.848221 -9.028646 15.575210 8.034121 1.112215 -24.877120 -21.852611 16.010708 2.637068 3.490240 -8.538021 0.000000 0.000000 0.000000 6.202211 -36.798115 1.086163 0.095188 5.776608 1.008761 12.553011 6.269043 -0.954266 0.164742 -0.683445 0.038206 0.000000 0.000000 0.000000 14.403493 7.709918 -1.397428 -7.790478 5.716775 2.136550 -7.717957 -0.145028 9.063017 0.000000 0.000000 0.000000 10.588948 6.542577 -1.455810 2.775491 -2.222960 -0.458326 4.271536 3.666527 -7.319710 -22.886904 14.816320 -61.460658 0.364544 -44.356031 -7.107034 0.000000 0.000000 0.000000 13.902446 6.850208 -0.755980 1.209716 1.416876 4.455962 -7.374579 6.214631 -1.218301 -4.902140 -22.803556 54.113786 -16.422684 37.859390 13.592164 0.000000 0.000000 0.000000 
5.245054 91.080231 -15.255444 0.000000 0.000000 0.000000 10.420908 -41.380691 3.748402 -33.084364 2.294245 14.426287 18.449277 -5.824537 4.010378 9.005943 -4.603091 -16.288855 1.299904 -2.390315 -3.606010 0.000000 0.000000 0.000000 10.052185 -39.710754 3.606095 -1.412032 -21.701297 -9.139605 17.070010 8.590864 2.372169 -22.616923 -19.521118 9.282795 1.100513 3.046224 -6.703362 0.000000 0.000000 0.000000 8.767022 -36.164291 1.633359 0.116998 4.841794 1.354425 12.893499 5.583699 -1.174594 0.200196 -0.400333 0.053858 0.000000 0.000000 0.000000 14.613000 6.999248 -1.562898 -10.117964 6.209635 3.725037 -9.274138 3.785210 9.286257 0.000000 0.000000 0.000000 11.200516 5.838713 -1.794738 2.960284 -1.612324 1.006974 3.922008 3.772524 -5.778154 -22.390345 16.311598 -64.016358 1.668855 -43.155802 -5.497522 0.000000 0.000000 0.000000 14.513976 6.274684 -1.236388 1.918768 3.477379 4.407510 -7.397984 4.387956 -0.753826 -8.977181 -18.559316 53.254633 -17.274558 38.324123 12.771421 0.000000 0.000000 0.000000 
6.127515 90.952766 -15.208874 0.000000 0.000000 0.000000 12.225005 -40.494856 4.847766 -34.293827 3.889608 12.756113 15.944517 -4.901614 5.530227 9.557468 -4.025835 -19.943531 3.203080 -2.633735 -1.432340 0.000000 0.000000 0.000000 11.643424 -39.452860 4.634566 -7.642907 -20.530213 -8.640477 21.920474 9.489229 3.389019 -20.462084 -17.074245 1.082436 -1.780701 2.421390 -5.195516 0.000000 0.000000 0.000000 10.876993 -34.661977 2.299133 0.670042 3.748967 1.435481 13.340796 4.695686 -1.537999 0.274559 -0.189682 0.164293 0.000000 0.000000 0.000000 15.066429 6.110061 -1.951245 -13.390137 6.716887 5.780224 -11.267916 8.264153 9.974643 0.000000 0.000000 0.000000 12.014906 4.907867 -2.293533 3.171870 -1.083824 2.797210 3.760806 2.974823 -4.264485 -22.706429 16.614510 -66.482172 2.557786 -41.049150 -4.023551 0.000000 0.000000 0.000000 15.190185 5.463639 -1.789799 2.843149 5.611718 4.134024 -7.223503 3.150388 -0.029028 -13.056117 -13.301279 53.139514 -18.490748 39.397344 11.834813 0.000000 0.000000 0.000000 
6.847157 89.518600 -14.947422 0.000000 0.000000 0.000000 13.799324 -38.933847 6.086062 -37.610167 6.314669 10.638744 15.355280 -4.023740 7.384063 11.143948 -4.786442 -23.240991 2.592244 -3.076174 1.472938 0.000000 0.000000 0.000000 13.237581 -38.412793 5.874358 -14.574266 -19.860438 -7.622454 30.124116 11.095000 3.982574 -18.564833 -14.523188 -6.726603 -5.908026 1.771211 -4.816334 0.000000 0.000000 0.000000 12.485746 -31.838889 2.961729 1.738149 2.667523 1.259114 14.017697 3.664875 -2.030693 0.309993 -0.118980 0.171852 0.000000 0.000000 0.000000 15.842784 5.104392 -2.510281 -17.239473 7.047710 8.030276 -13.436238 13.164017 11.191554 0.000000 0.000000 0.000000 13.129323 3.807334 -2.887328 3.374675 -0.692982 4.613630 3.876395 1.655118 -3.060210 -23.956243 15.667026 -67.803001 2.664322 -38.591252 -2.963200 0.000000 0.000000 0.000000 16.058381 4.453886 -2.378637 3.864238 7.593209 3.509967 -6.626270 2.936677 0.904887 -16.998442 -8.330191 53.586553 -20.407456 41.960868 11.278273 0.000000 0.000000 0.000000 
7.267794 86.930641 -14.878944 0.000000 0.000000 0.000000 14.989094 -35.994568 7.181882 -43.529923 8.527044 8.625069 16.869136 -4.299482 9.401530 14.129693 -7.610649 -27.502909 0.591529 -3.618209 4.422708 0.000000 0.000000 0.000000 15.169594 -35.408018 7.176411 -21.410085 -19.745326 -6.391979 40.472006 13.870934 3.751819 -17.708191 -11.553857 -12.121445 -10.670997 1.405245 -6.026225 0.000000 0.000000 0.000000 13.854518 -27.642436 3.596043 3.241625 1.685360 0.831720 15.009523 2.469014 -2.629469 0.273851 -0.160255 0.144038 0.000000 0.000000 0.000000 16.950844 3.990179 -3.143472 -21.334613 7.139612 10.089944 -15.568361 17.888260 12.796393 0.000000 0.000000 0.000000 14.524204 2.577450 -3.534997 3.564829 -0.453116 6.017385 4.245328 0.087495 -1.664146 -26.015178 13.569781 -67.447298 1.964994 -37.198638 -2.354966 0.000000 0.000000 0.000000 17.225408 3.301202 -3.000412 4.899740 9.445233 2.571105 -5.497186 3.857300 1.858845 -21.044865 -4.884231 54.088333 -23.259074 46.301566 11.651069 0.000000 0.000000 0.000000 
7.348125 83.325577 -15.469814 0.000000 0.000000 0.000000 16.117785 -30.928449 7.838954 -51.393236 10.610017 6.788230 19.607443 -4.650358 11.027906 15.884090 -10.852434 -30.492919 -0.855113 -4.209518 6.885950 0.000000 0.000000 0.000000 17.246472 -30.324800 8.058166 -27.384737 -19.912447 -5.028463 51.222085 17.397675 2.528565 -18.914628 -7.905014 -14.834674 -14.688733 1.671309 -8.724170 0.000000 0.000000 0.000000 15.317239 -22.520327 4.031045 4.974694 0.848111 0.362468 16.345761 1.145352 -3.249812 0.190672 -0.199167 0.109684 0.000000 0.000000 0.000000 18.335534 2.790881 -3.733801 -25.238686 7.064608 11.622086 -17.584459 22.435797 14.429244 0.000000 0.000000 0.000000 16.138709 1.333548 -4.151073 3.721891 -0.193650 6.780429 4.604980 -1.390405 -0.636720 -28.244410 10.529300 -65.124112 0.753150 -38.527007 -2.200669 0.000000 0.000000 0.000000 18.652121 2.087419 -3.599380 5.892643 11.249229 1.291582 -4.231031 4.836912 2.413840 -24.873281 -3.482435 53.916530 -27.303247 51.746807 13.482776 0.000000 0.000000 0.000000 
7.309596 78.935265 -16.330383 0.000000 0.000000 0.000000 17.617677 -23.923485 7.900989 -60.192203 11.949599 5.279497 23.707706 -4.298854 11.712356 15.431467 -13.071314 -31.122389 -0.316286 -4.651197 8.391622 0.000000 0.000000 0.000000 19.535898 -23.741946 8.203523 -32.164447 -20.224749 -3.442764 61.458821 20.682209 0.402376 -22.573758 -4.252273 -15.807648 -16.340270 2.457955 -12.121526 0.000000 0.000000 0.000000 17.214904 -16.737042 4.200343 6.712244 0.205344 0.131833 17.874969 -0.220408 -3.784988 0.044931 -0.197047 0.072967 0.000000 0.000000 0.000000 19.837137 1.541494 -4.188712 -28.436656 7.016484 12.508698 -19.519545 26.733084 15.817183 0.000000 0.000000 0.000000 17.841856 0.143323 -4.691991 3.863669 0.052325 6.918327 5.352146 -2.969868 0.131977 -29.924360 6.943109 -60.771915 -0.580079 -43.064964 -2.542932 0.000000 0.000000 0.000000 20.264058 0.889171 -4.120809 6.849948 13.273954 -0.160230 -2.849827 5.185976 2.754319 -28.345217 -3.724379 52.446079 -32.359531 56.867595 16.783440 0.000000 0.000000 0.000000 
